<svg id="visual" viewBox="0 0 960 540" width="960" height="540" xmlns="http://www.w3.org/2000/svg" xmlns:xlink="http://www.w3.org/1999/xlink" version="1.1"><rect x="0" y="0" width="960" height="540" fill="#f5f7f8"></rect><defs><linearGradient id="grad1_0" x1="43.8%" y1="0%" x2="100%" y2="100%"><stop offset="14.444444444444446%" stop-color="#009473" stop-opacity="1"></stop><stop offset="85.55555555555554%" stop-color="#009473" stop-opacity="1"></stop></linearGradient></defs><defs><linearGradient id="grad1_1" x1="43.8%" y1="0%" x2="100%" y2="100%"><stop offset="14.444444444444446%" stop-color="#009473" stop-opacity="1"></stop><stop offset="85.55555555555554%" stop-color="#84c6c9" stop-opacity="1"></stop></linearGradient></defs><defs><linearGradient id="grad1_2" x1="43.8%" y1="0%" x2="100%" y2="100%"><stop offset="14.444444444444446%" stop-color="#f5f7f8" stop-opacity="1"></stop><stop offset="85.55555555555554%" stop-color="#84c6c9" stop-opacity="1"></stop></linearGradient></defs><defs><linearGradient id="grad2_0" x1="0%" y1="0%" x2="56.3%" y2="100%"><stop offset="14.444444444444446%" stop-color="#009473" stop-opacity="1"></stop><stop offset="85.55555555555554%" stop-color="#009473" stop-opacity="1"></stop></linearGradient></defs><defs><linearGradient id="grad2_1" x1="0%" y1="0%" x2="56.3%" y2="100%"><stop offset="14.444444444444446%" stop-color="#84c6c9" stop-opacity="1"></stop><stop offset="85.55555555555554%" stop-color="#009473" stop-opacity="1"></stop></linearGradient></defs><defs><linearGradient id="grad2_2" x1="0%" y1="0%" x2="56.3%" y2="100%"><stop offset="14.444444444444446%" stop-color="#84c6c9" stop-opacity="1"></stop><stop offset="85.55555555555554%" stop-color="#f5f7f8" stop-opacity="1"></stop></linearGradient></defs><g transform="translate(960, 0)"><path d="M0 378C-49.3 372.7 -98.6 367.4 -144.7 349.2C-190.7 331.1 -233.6 300.1 -261.6 261.6C-289.6 223.2 -302.7 177.3 -319.7 132.4C-336.6 87.6 -357.3 43.8 -378 0L0 0Z" fill="#bfdee5"></path><path d="M0 252C-32.9 248.5 -65.7 244.9 -96.4 232.8C-127.2 220.7 -155.8 200.1 -174.4 174.4C-193.1 148.8 -201.8 118.2 -213.1 88.3C-224.4 58.4 -238.2 29.2 -252 0L0 0Z" fill="#49aea3"></path><path d="M0 126C-16.4 124.2 -32.9 122.5 -48.2 116.4C-63.6 110.4 -77.9 100 -87.2 87.2C-96.5 74.4 -100.9 59.1 -106.6 44.1C-112.2 29.2 -119.1 14.6 -126 0L0 0Z" fill="#009473"></path></g><g transform="translate(0, 540)"><path d="M0 -378C46.2 -357.4 92.4 -336.7 129.3 -312.3C166.3 -287.8 194.1 -259.5 233.3 -233.3C272.6 -207.2 323.2 -183.2 349.2 -144.7C375.2 -106.1 376.6 -53.1 378 0L0 0Z" fill="#bfdee5"></path><path d="M0 -252C30.8 -238.2 61.6 -224.5 86.2 -208.2C110.9 -191.9 129.4 -173 155.6 -155.6C181.7 -138.1 215.5 -122.1 232.8 -96.4C250.2 -70.7 251.1 -35.4 252 0L0 0Z" fill="#49aea3"></path><path d="M0 -126C15.4 -119.1 30.8 -112.2 43.1 -104.1C55.4 -95.9 64.7 -86.5 77.8 -77.8C90.9 -69.1 107.7 -61.1 116.4 -48.2C125.1 -35.4 125.5 -17.7 126 0L0 0Z" fill="#009473"></path></g></svg>