<svg width="52" height="33" viewBox="0 0 52 33" fill="none" xmlns="http://www.w3.org/2000/svg">
<g filter="url(#filter0_d_1_2)">
<path d="M23.2727 0.727272V24H20.5455L7.86364 5.72727H7.63636V24H4.81818V0.727272H7.54545L20.2727 19.0455H20.5V0.727272H23.2727Z" fill="#282828"/>
<path d="M47.6392 8H44.821C44.6544 7.18939 44.3627 6.47727 43.946 5.86364C43.5369 5.25 43.0369 4.73485 42.446 4.31818C41.8627 3.89394 41.215 3.57576 40.5028 3.36364C39.7907 3.15151 39.0483 3.04545 38.2756 3.04545C36.8665 3.04545 35.59 3.40151 34.446 4.11364C33.3097 4.82576 32.4044 5.875 31.7301 7.26136C31.0634 8.64773 30.7301 10.3485 30.7301 12.3636C30.7301 14.3788 31.0634 16.0795 31.7301 17.4659C32.4044 18.8523 33.3097 19.9015 34.446 20.6136C35.59 21.3258 36.8665 21.6818 38.2756 21.6818C39.0483 21.6818 39.7907 21.5758 40.5028 21.3636C41.215 21.1515 41.8627 20.8371 42.446 20.4205C43.0369 19.9962 43.5369 19.4773 43.946 18.8636C44.3627 18.2424 44.6544 17.5303 44.821 16.7273H47.6392C47.4271 17.9167 47.0407 18.9811 46.4801 19.9205C45.9195 20.8598 45.2225 21.6591 44.3892 22.3182C43.5559 22.9697 42.6203 23.4659 41.5824 23.8068C40.5521 24.1477 39.4498 24.3182 38.2756 24.3182C36.2907 24.3182 34.5256 23.8333 32.9801 22.8636C31.4347 21.8939 30.2188 20.5152 29.3324 18.7273C28.446 16.9394 28.0028 14.8182 28.0028 12.3636C28.0028 9.90909 28.446 7.78788 29.3324 6C30.2188 4.21212 31.4347 2.83333 32.9801 1.86364C34.5256 0.893939 36.2907 0.40909 38.2756 0.40909C39.4498 0.40909 40.5521 0.579545 41.5824 0.920454C42.6203 1.26136 43.5559 1.76136 44.3892 2.42045C45.2225 3.07197 45.9195 3.86742 46.4801 4.80682C47.0407 5.73864 47.4271 6.80303 47.6392 8Z" fill="#4C5DF1"/>
</g>
<defs>
<filter id="filter0_d_1_2" x="0.818176" y="0.409088" width="50.821" height="31.9091" filterUnits="userSpaceOnUse" color-interpolation-filters="sRGB">
<feFlood flood-opacity="0" result="BackgroundImageFix"/>
<feColorMatrix in="SourceAlpha" type="matrix" values="0 0 0 0 0 0 0 0 0 0 0 0 0 0 0 0 0 0 127 0" result="hardAlpha"/>
<feOffset dy="4"/>
<feGaussianBlur stdDeviation="2"/>
<feComposite in2="hardAlpha" operator="out"/>
<feColorMatrix type="matrix" values="0 0 0 0 0 0 0 0 0 0 0 0 0 0 0 0 0 0 0.25 0"/>
<feBlend mode="normal" in2="BackgroundImageFix" result="effect1_dropShadow_1_2"/>
<feBlend mode="normal" in="SourceGraphic" in2="effect1_dropShadow_1_2" result="shape"/>
</filter>
</defs>
</svg>
